<?xml version="1.0" standalone="no"?>
<!DOCTYPE svg PUBLIC "-//W3C//DTD SVG 20010904//EN"
 "http://www.w3.org/TR/2001/REC-SVG-20010904/DTD/svg10.dtd">
<svg version="1.0" xmlns="http://www.w3.org/2000/svg"
 width="409.000000pt" height="409.000000pt" viewBox="0 0 409.000000 409.000000"
 preserveAspectRatio="xMidYMid meet">
<metadata>
Created by potrace 1.11, written by Peter Selinger 2001-2013
</metadata>
<g transform="translate(0.000000,409.000000) scale(0.100000,-0.100000)"
fill="#000000" stroke="none">
<path d="M804 3902 c-21 -14 -21 -41 2 -287 l23 -250 -29 -285 -30 -285 29
-40 c134 -191 202 -298 197 -310 -3 -8 -122 -175 -265 -372 l-259 -359 -20
-484 c-10 -267 -16 -493 -13 -502 3 -9 80 -75 171 -147 l165 -131 75 0 c233 0
1853 41 1863 46 25 15 804 633 816 648 33 39 14 54 -487 384 -269 177 -498
322 -509 322 -11 0 -63 -18 -116 -39 -54 -22 -97 -36 -97 -32 0 4 20 149 45
321 36 251 49 319 67 348 12 19 70 111 130 205 59 93 108 179 108 191 0 11
-20 136 -43 276 l-43 255 33 239 c30 223 31 241 16 258 -9 10 -26 18 -37 18
-12 0 -218 -56 -458 -124 l-438 -124 -422 134 c-233 74 -432 134 -443 134 -11
0 -25 -4 -31 -8z m336 -193 c124 -39 236 -76 250 -81 22 -9 -6 -21 -215 -97
-132 -48 -242 -86 -244 -84 -4 3 -30 261 -31 306 0 15 3 27 7 27 4 0 109 -32
233 -71z m1386 19 c-3 -18 -13 -90 -22 -159 l-16 -127 -82 30 c-44 17 -153 56
-241 88 l-160 58 55 16 c234 68 438 124 454 125 15 1 17 -4 12 -31z m-947
-191 l31 -13 -357 -291 c-197 -160 -358 -290 -359 -289 -1 0 7 87 18 191 12
127 22 193 31 199 15 10 576 213 593 215 7 0 26 -5 43 -12z m606 -95 l299
-108 33 -199 c18 -110 33 -203 33 -207 0 -7 -302 235 -639 511 l-105 85 30 13
c16 6 34 12 39 12 6 0 145 -48 310 -107z m-60 -312 c220 -177 401 -324 403
-325 2 -2 -39 -68 -90 -149 -75 -117 -99 -148 -123 -155 -16 -5 -102 -32 -190
-60 l-160 -50 -64 -86 -63 -85 -117 0 -117 0 -60 79 c-32 44 -72 85 -87 92
-16 6 -101 33 -190 58 l-162 47 -107 154 -106 155 26 22 c539 440 789 639 797
633 6 -4 190 -152 410 -330z m165 -767 c0 -10 -19 -158 -42 -328 l-42 -311
-216 -86 c-118 -47 -216 -85 -217 -84 -2 1 0 96 4 210 l6 208 126 165 126 166
115 38 c135 44 140 44 140 22z m-990 -34 l115 -33 120 -159 c66 -87 125 -166
130 -175 6 -11 8 -98 5 -235 l-5 -219 -183 -73 c-120 -48 -184 -70 -187 -62
-5 17 -135 958 -135 981 0 11 5 16 13 13 7 -2 64 -20 127 -38z m-181 -458 c33
-244 59 -446 57 -448 -2 -3 -133 63 -290 144 l-285 149 222 306 c122 168 225
303 228 299 3 -3 34 -206 68 -450z m1419 -224 c17 -45 32 -89 31 -97 0 -8 -15
-46 -32 -84 l-32 -69 -958 -282 c-526 -156 -969 -286 -983 -289 l-27 -7 6 61
c3 34 7 63 9 66 5 4 1939 783 1948 783 3 1 20 -36 38 -82z m680 -491 l-3 -130
-239 -189 c-131 -103 -239 -187 -241 -185 -9 9 -65 166 -65 181 0 10 20 70 45
135 25 64 45 125 45 135 0 10 -35 70 -78 135 l-79 117 39 93 39 92 -16 52 c-8
28 -15 55 -15 59 0 5 128 -76 285 -179 l285 -187 -2 -129z m-2343 299 c157
-82 282 -151 276 -153 -5 -2 -143 -57 -306 -122 l-298 -119 6 77 c4 42 9 166
13 275 4 109 10 196 14 195 4 -2 137 -70 295 -153z m1710 -263 l65 -98 -41
-109 c-23 -61 -42 -111 -43 -112 -8 -9 -1145 -209 -1499 -263 l-269 -41 -94
72 c-52 40 -97 75 -99 78 -3 5 1882 569 1907 570 5 1 37 -43 73 -97z m13 -479
c19 -51 19 -60 7 -90 l-14 -33 -78 0 c-43 0 -284 -5 -536 -11 -252 -6 -460 -9
-463 -7 -2 3 108 24 244 47 136 23 373 66 527 96 154 29 283 53 286 54 3 1 16
-24 27 -56z"/>
</g>
</svg>
